# xmcd
#
# Track frame offsets:
#	150
#	20647
#	36732
#	58320
#	75952
#	94005
#	110592
#	129527
#	149482
#	168042
#	186967
#	208727
#
# Disc length: 3010 seconds
#
# Revision: 3
# Processed by: cddbd v1.5.2PL0 Copyright (c) Steve Scherf et al.
# Submitted via: EasyCDDAExtractor 15.3.0.1
#
DISCID=ad0bc00c
DTITLE=Luis Fonsi - Abrazar La Vida
DYEAR=2003
DGENRE=Latin
TTITLE0=Quien Te Dijo Eso
TTITLE1=Abrazar La Vida
TTITLE2=Yo Te Propongo
TTITLE3=Extraño Sentimiento
TTITLE4=Por Ti Podria Morir
TTITLE5=Yo
TTITLE6=Viviendo En El Ayer
TTITLE7=Te Echo De Menos
TTITLE8=Eso Que Llaman Amor
TTITLE9=La Fuerza De Mi Corazon (Tema Principal De La Pelicula ''El Cid'')
TTITLE10=Eligeme
TTITLE11=Se Supone (Bonus Track)
EXTD=
EXTT0=
EXTT1=
EXTT2=
EXTT3=
EXTT4=
EXTT5=
EXTT6=
EXTT7=
EXTT8=
EXTT9=
EXTT10=
EXTT11=
PLAYORDER=
